<?xml version="1.0" encoding="UTF-8" standalone="no"?>
<svg
   xmlns:dc="http://purl.org/dc/elements/1.1/"
   xmlns:cc="http://creativecommons.org/ns#"
   xmlns:rdf="http://www.w3.org/1999/02/22-rdf-syntax-ns#"
   xmlns:svg="http://www.w3.org/2000/svg"
   xmlns="http://www.w3.org/2000/svg"
   xmlns:xlink="http://www.w3.org/1999/xlink"
   xmlns:sodipodi="http://sodipodi.sourceforge.net/DTD/sodipodi-0.dtd"
   xmlns:inkscape="http://www.inkscape.org/namespaces/inkscape"
   width="300mm"
   height="100mm"
   viewBox="0 0 300 100"
   version="1.1"
   id="svg8"
   inkscape:version="1.0 (4035a4fb49, 2020-05-01)"
   sodipodi:docname="survive-halloween.svg">
  <defs
     id="defs2">
    <linearGradient
       inkscape:collect="always"
       id="linearGradient843">
      <stop
         style="stop-color:#000000;stop-opacity:1;"
         offset="0"
         id="stop839" />
      <stop
         style="stop-color:#000000;stop-opacity:0;"
         offset="1"
         id="stop841" />
    </linearGradient>
    <rect
       x="29.482143"
       y="53.672619"
       width="158.75"
       height="61.232143"
       id="rect835" />
    <linearGradient
       inkscape:collect="always"
       xlink:href="#linearGradient843"
       id="linearGradient845"
       x1="30.075087"
       y1="60.593353"
       x2="90.981316"
       y2="60.593353"
       gradientUnits="userSpaceOnUse" />
  </defs>
  <sodipodi:namedview
     id="base"
     pagecolor="#354040"
     bordercolor="#666666"
     borderopacity="1.0"
     inkscape:pageopacity="1"
     inkscape:pageshadow="2"
     inkscape:zoom="0.7"
     inkscape:cx="697.29106"
     inkscape:cy="-6.3328346"
     inkscape:document-units="mm"
     inkscape:current-layer="layer1"
     inkscape:document-rotation="0"
     showgrid="false"
     inkscape:pagecheckerboard="false"
     inkscape:window-width="1822"
     inkscape:window-height="1051"
     inkscape:window-x="89"
     inkscape:window-y="-9"
     inkscape:window-maximized="1" />
  <metadata
     id="metadata5">
    <rdf:RDF>
      <cc:Work
         rdf:about="">
        <dc:format>image/svg+xml</dc:format>
        <dc:type
           rdf:resource="http://purl.org/dc/dcmitype/StillImage" />
        <dc:title></dc:title>
      </cc:Work>
    </rdf:RDF>
  </metadata>
  <g
     inkscape:label="Capa 1"
     inkscape:groupmode="layer"
     id="layer1">
    <g
       style="font-style:normal;font-variant:normal;font-weight:normal;font-stretch:normal;font-size:10.5833px;line-height:0.85;font-family:'Espen Halloween';-inkscape-font-specification:'Espen Halloween';letter-spacing:-0.47625px;white-space:pre;shape-inside:url(#rect835);fill:#ff0000;fill-opacity:1;stroke:#ffffff;stroke-width:0.15;stroke-miterlimit:4;stroke-dasharray:none;stroke-opacity:1"
       id="text833"
       transform="matrix(5.0961768,0,0,5.0961768,-148.7542,-230.40653)"
       aria-label="HALLOWEEN">
      <path
         id="path842"
         style="font-style:normal;font-variant:normal;font-weight:normal;font-stretch:normal;font-family:'Espen Halloween';-inkscape-font-specification:'Espen Halloween';fill:#ff0000;fill-opacity:1;stroke:#ffffff;stroke-width:0.15;stroke-miterlimit:4;stroke-dasharray:none;stroke-opacity:1"
         d="m 34.858738,53.936458 q 0.148166,-0.02117 0.359832,-0.02117 0.201083,0 0.328083,0.0635 0.169332,0.09525 0.169332,0.232832 0,0.07408 -0.05292,0.211666 -0.04233,0.105833 -0.105833,0.359833 l -0.137583,0.550331 q -0.09525,0.380999 -0.09525,0.518582 0,0.105833 -0.169333,0.550331 -0.158749,0.412749 -0.158749,0.592665 0,0.253999 -0.04233,0.423332 -0.211666,1.174746 -0.275166,2.719908 -0.03175,0.656165 -0.116416,0.867831 -0.07408,0.158749 -0.07408,0.719664 0,0.560915 -0.09525,0.878414 -0.09525,0.328082 -0.09525,0.592665 v 0.264582 h -0.402165 l -0.03175,-0.306915 -0.0635,-1.449912 q -0.0635,-1.439329 -0.08467,-1.661578 l -0.03175,-0.338666 -0.402166,0.02117 q -0.518581,0.05292 -0.719664,0.08467 l -0.328082,0.05292 q 0,0.28575 0.01058,0.878414 0.01058,0.592665 0.01058,0.878414 l 0.15875,0.137583 q 0.169333,0.137583 0.169333,0.285749 0,0.137583 -0.179916,0.222249 -0.169333,0.08467 -0.476249,0.08467 -0.359832,0 -0.709081,0.0635 -0.253999,0.04233 -0.391582,0.04233 -0.137583,0 -0.285749,-0.05292 -0.359832,-0.105833 -0.359832,-0.306915 0,-0.0635 0.04233,-0.137583 0.05292,-0.08467 0.116416,-0.105833 0.07408,-0.02117 0.317499,-0.02117 0.264583,0 0.317499,-0.02117 0.05292,-0.01058 0.08467,-0.105833 0.04233,-0.105833 0.105833,-0.931331 0.179916,-1.841494 0.179916,-3.026824 0,-0.539748 -0.05292,-1.068913 -0.08467,-0.719664 -0.391582,-1.217079 -0.127,-0.1905 -0.179916,-0.22225 -0.05292,-0.04233 -0.222249,-0.04233 -0.423332,0 -0.423332,-0.296332 0,-0.137583 0.0635,-0.201083 0.05292,-0.05292 0.656165,-0.169333 0.560915,-0.105833 0.825497,-0.201082 0.116417,-0.04233 0.211666,-0.04233 0.179916,0 0.317499,0.201082 0.08467,0.137583 0.08467,0.592665 0,0.243416 -0.07408,1.206496 -0.04233,0.613832 -0.04233,1.598078 v 1.037164 l 0.243416,-0.02117 q 0.857248,-0.126999 1.079497,-0.126999 0.338666,0 0.455082,-0.275166 0.126999,-0.275166 0.126999,-1.02658 0,-1.02658 0.137583,-1.830911 0.03175,-0.15875 0.03175,-0.380999 0,-0.137583 -0.01058,-0.201083 -0.04233,-0.306915 -0.169333,-0.412748 -0.126999,-0.116417 -0.126999,-0.306916 0,-0.211666 0.05292,-0.243416 0.116416,-0.08467 0.920747,-0.158749 z" />
      <path
         id="path844"
         style="font-style:normal;font-variant:normal;font-weight:normal;font-stretch:normal;font-family:'Espen Halloween';-inkscape-font-specification:'Espen Halloween';fill:#ff0000;fill-opacity:1;stroke:#ffffff;stroke-width:0.15;stroke-miterlimit:4;stroke-dasharray:none;stroke-opacity:1"
         d="m 40.452341,56.995031 q -0.03175,-0.222249 -0.1905,-0.804331 -0.148166,-0.582081 -0.169332,-0.656164 -0.0635,-0.253999 -0.08467,-0.253999 -0.03175,0 -0.126999,0.698497 -0.01058,0.0635 -0.179917,0.751415 -0.158749,0.687914 -0.158749,0.846664 0,0.0635 0.02117,0.0635 0.01058,0 0.0635,0.01058 0.05292,0 0.15875,0.01058 0.105833,0.01058 0.179916,0.02117 0.07408,0.01058 0.232833,0.01058 0.169332,0 0.253999,-0.02117 0.07408,-0.02117 0.08467,-0.05292 0.01058,-0.04233 -0.01058,-0.179916 -0.02117,-0.127 -0.07408,-0.444499 z m -0.899581,-3.14324 q 0.0635,-0.169333 0.179916,-0.264582 0.116417,-0.09525 0.211666,-0.09525 0.179916,0 0.444499,0.264583 l 0.232833,0.232832 0.02117,0.497415 q 0.03175,0.476249 0.105833,0.624415 0.07408,0.148166 0.264583,1.333496 0.09525,0.613831 0.211666,0.857247 l 0.126999,0.264582 0.306916,0.02117 q 0.296332,0.02117 0.402165,0.08467 0.116417,0.0635 0.232833,0.232833 0.116416,0.158749 0.116416,0.285749 0,0.116416 -0.08467,0.243416 -0.07408,0.127 -0.169333,0.169333 -0.497415,0.190499 -0.497415,0.296332 0,0.07408 0.253999,0.582082 0.253999,0.507998 0.253999,0.529165 0,0.05292 0.285749,0.645581 0.296333,0.592665 0.349249,0.645581 0.0635,0.07408 0.433916,0.07408 0.232832,0 0.306915,0.02117 0.07408,0.02117 0.137583,0.105833 0.105833,0.148166 0.105833,0.222249 0,0.09525 -0.169333,0.243416 -0.158749,0.15875 -0.338665,0.232833 -0.317499,0.126999 -1.799161,0.148166 -0.380999,0 -0.486832,-0.02117 -0.09525,-0.01058 -0.211666,-0.08467 -0.201083,-0.137583 -0.201083,-0.317499 0,-0.148166 0.105833,-0.359832 0.254,-0.507999 0.296333,-1.428746 0.01058,-0.126999 0.01058,-0.359832 0,-0.761998 -0.158749,-0.846664 -0.179917,-0.09525 -0.994831,-0.09525 -0.603248,0 -0.645581,0.04233 -0.09525,0.09525 -0.09525,1.619244 0,0.486832 0.03175,0.603248 0.04233,0.15875 0.179916,0.296333 0.116417,0.116416 0.116417,0.211666 0,0.05292 -0.01058,0.08467 -0.01058,0.105833 -0.05292,0.179916 -0.04233,0.07408 -0.105833,0.15875 -0.0635,0.08467 -0.09525,0.148166 -0.105833,0.201083 -0.328082,0.253999 -0.211666,0.0635 -0.836081,0.0635 -0.730247,0 -0.825497,-0.03175 -0.582082,-0.169333 -0.624415,-0.539748 0,-0.02117 -0.01058,-0.05292 0,-0.02117 0,-0.03175 0,-0.105833 0.201083,-0.275165 0.634998,-0.603248 1.365245,-2.010827 0.253999,-0.539749 0.338666,-1.142997 0.02117,-0.126999 0.02117,-0.148166 0,-0.08467 -0.148166,-0.243416 -0.582081,-0.613831 -0.772581,-0.666748 -0.05292,-0.02117 -0.148166,-0.02117 -0.211666,0 -0.211666,0.179916 0,0.116416 0.116416,0.232832 0.148167,0.148167 0.148167,0.349249 0,0.127 -0.07408,0.201083 -0.105833,0.08467 -0.22225,0.08467 -0.04233,0 -0.232832,-0.04233 -0.476249,-0.148166 -0.497415,-0.719664 0,-0.666748 0.77258,-0.952497 0.04233,-0.02117 0.15875,-0.02117 0.243416,0 0.582081,0.148167 0.338666,0.137582 0.560915,0.338665 0.169333,0.15875 0.254,0.15875 0.08467,0 0.08467,-0.137583 0,-0.02117 0.09525,-0.497415 0.0635,-0.243416 0.137583,-0.624415 0.07408,-0.391582 0.148166,-0.677331 0.148166,-0.529165 0.201082,-0.857248 0.08467,-0.486831 0.137583,-0.645581 z" />
      <path
         id="path846"
         style="font-style:normal;font-variant:normal;font-weight:normal;font-stretch:normal;font-family:'Espen Halloween';-inkscape-font-specification:'Espen Halloween';fill:#ff0000;fill-opacity:1;stroke:#ffffff;stroke-width:0.15;stroke-miterlimit:4;stroke-dasharray:none;stroke-opacity:1"
         d="m 45.559773,53.767125 q 0.08467,-0.09525 0.116416,-0.09525 0.03175,0 0.148166,0.116416 0.105833,0.105833 0.169333,0.105833 0.105833,0 0.105833,0.391583 0,0.105833 -0.01058,0.158749 v 0.116416 q 0,0.179916 0.03175,0.656165 0.03175,0.476248 0.03175,0.560915 0,0.211666 0.07408,0.412748 0.05292,0.179917 0.05292,0.380999 0,0.127 -0.05292,1.079497 -0.105833,1.92616 -0.105833,2.233076 0,0.550332 0.179916,0.973664 l 0.105833,0.243415 0.253999,-0.02117 q 0.296332,-0.03175 0.740831,-0.201083 0.455082,-0.179916 0.560915,-0.296332 0.03175,-0.03175 0.211666,-0.148166 0.190499,-0.127 0.232833,-0.179916 0.08467,-0.08467 0.201082,-0.08467 0.105833,0 0.285749,0.105833 0.07408,0.04233 0.07408,0.05292 0.01058,0 0.04233,0.04233 0.03175,0.04233 0.03175,0.105833 0.01058,0.05292 0.01058,0.158749 0,0.07408 -0.01058,0.1905 0,0.116416 -0.01058,0.328082 -0.01058,0.201083 -0.02117,0.370415 -0.02117,0.433916 -0.05292,0.539749 -0.02117,0.116416 -0.09525,0.190499 l -0.105833,0.105833 -0.571498,-0.07408 q -0.624414,-0.08467 -1.873244,-0.08467 -1.291162,0 -1.375829,-0.04233 -0.08467,-0.04233 -0.105833,-0.126999 -0.01058,-0.0635 -0.169333,-0.179916 -0.148166,-0.116417 -0.148166,-0.232833 0,-0.126999 0.08467,-0.275166 0.09525,-0.137583 0.222249,-0.222249 0.148166,-0.105833 0.201083,-0.328082 0.03175,-0.116417 0.03175,-0.285749 0,-0.105833 0.03175,-0.328083 0.04233,-0.306915 0.08467,-1.227662 0.04233,-0.920747 0.07408,-1.24883 0.0635,-0.560915 0.0635,-0.878414 0,-0.264582 0.05292,-0.793747 0.0635,-0.96308 0.07408,-1.365246 0.03175,-0.793747 0.127,-0.89958 z" />
      <path
         id="path848"
         style="font-style:normal;font-variant:normal;font-weight:normal;font-stretch:normal;font-family:'Espen Halloween';-inkscape-font-specification:'Espen Halloween';fill:#ff0000;fill-opacity:1;stroke:#ffffff;stroke-width:0.15;stroke-miterlimit:4;stroke-dasharray:none;stroke-opacity:1"
         d="m 50.809253,53.767125 q 0.08467,-0.09525 0.116416,-0.09525 0.03175,0 0.148167,0.116416 0.105833,0.105833 0.169332,0.105833 0.105833,0 0.105833,0.391583 0,0.105833 -0.01058,0.158749 v 0.116416 q 0,0.179916 0.03175,0.656165 0.03175,0.476248 0.03175,0.560915 0,0.211666 0.07408,0.412748 0.05292,0.179917 0.05292,0.380999 0,0.127 -0.05292,1.079497 -0.105833,1.92616 -0.105833,2.233076 0,0.550332 0.179916,0.973664 l 0.105833,0.243415 0.253999,-0.02117 q 0.296333,-0.03175 0.740831,-0.201083 0.455082,-0.179916 0.560915,-0.296332 0.03175,-0.03175 0.211666,-0.148166 0.1905,-0.127 0.232833,-0.179916 0.08467,-0.08467 0.201082,-0.08467 0.105833,0 0.28575,0.105833 0.07408,0.04233 0.07408,0.05292 0.01058,0 0.04233,0.04233 0.03175,0.04233 0.03175,0.105833 0.01058,0.05292 0.01058,0.158749 0,0.07408 -0.01058,0.1905 0,0.116416 -0.01058,0.328082 -0.01058,0.201083 -0.02117,0.370415 -0.02117,0.433916 -0.05292,0.539749 -0.02117,0.116416 -0.09525,0.190499 l -0.105833,0.105833 -0.571499,-0.07408 q -0.624414,-0.08467 -1.873244,-0.08467 -1.291162,0 -1.375828,-0.04233 -0.08467,-0.04233 -0.105833,-0.126999 -0.01058,-0.0635 -0.169333,-0.179916 -0.148166,-0.116417 -0.148166,-0.232833 0,-0.126999 0.08467,-0.275166 0.09525,-0.137583 0.222249,-0.222249 0.148166,-0.105833 0.201083,-0.328082 0.03175,-0.116417 0.03175,-0.285749 0,-0.105833 0.03175,-0.328083 0.04233,-0.306915 0.08467,-1.227662 0.04233,-0.920747 0.07408,-1.24883 0.0635,-0.560915 0.0635,-0.878414 0,-0.264582 0.05292,-0.793747 0.0635,-0.96308 0.07408,-1.365246 0.03175,-0.793747 0.126999,-0.89958 z" />
      <path
         id="path850"
         style="font-style:normal;font-variant:normal;font-weight:normal;font-stretch:normal;font-family:'Espen Halloween';-inkscape-font-specification:'Espen Halloween';fill:#ff0000;fill-opacity:1;stroke:#ffffff;stroke-width:0.15;stroke-miterlimit:4;stroke-dasharray:none;stroke-opacity:1"
         d="m 57.836729,56.518783 q -0.07408,-0.105833 -0.179916,-0.105833 -0.08467,0 -0.148167,0.0635 -0.07408,0.07408 -0.07408,0.158749 0,0.190499 0.243416,0.190499 0.201083,0 0.201083,-0.179916 0,-0.07408 -0.04233,-0.126999 z m -0.634998,-0.09525 q -0.04233,-0.05292 -0.137583,-0.0635 -0.09525,-0.01058 -0.15875,0.03175 -0.08467,0.0635 -0.08467,0.15875 0,0.08467 0.05292,0.158749 0.0635,0.0635 0.148167,0.0635 h 0.02117 q 0.02117,-0.01058 0.03175,-0.01058 0.15875,-0.05292 0.15875,-0.232833 0,-0.05292 -0.03175,-0.105833 z m -0.105833,-0.486832 q 0.253999,-0.03175 0.338665,-0.03175 0.105833,0 0.243416,0.04233 0.275166,0.08467 0.444499,0.317499 0.179916,0.232832 0.179916,0.507998 0,0.08467 -0.01058,0.127 -0.02117,0.169332 -0.08467,0.232832 -0.05292,0.0635 -0.190499,0.09525 -0.105833,0.02117 -0.148166,0.0635 -0.04233,0.04233 -0.08467,0.201082 -0.126999,0.402166 -0.275166,0.402166 -0.08467,0 -0.08467,-0.07408 0,-0.0635 0.0635,-0.22225 0.0635,-0.158749 0.0635,-0.201082 0,-0.02117 -0.01058,-0.03175 -0.02117,-0.02117 -0.04233,0 -0.02117,0.02117 -0.0635,0.07408 -0.03175,0.05292 -0.0635,0.137583 -0.127,0.275165 -0.1905,0.275165 -0.02117,0 -0.02117,-0.04233 0,-0.07408 0.07408,-0.253999 0.0635,-0.148166 0.0635,-0.222249 0,-0.04233 -0.0635,-0.04233 -0.07408,0 -0.07408,0.0635 0,0.07408 -0.09525,0.275166 -0.09525,0.1905 -0.148166,0.1905 h -0.01058 q -0.0635,-0.03175 -0.0635,-0.105833 0,-0.07408 0.0635,-0.211666 0.07408,-0.137583 0.07408,-0.179916 0,-0.08467 -0.04233,-0.08467 -0.0635,0 -0.148166,0.211666 -0.07408,0.190499 -0.137583,0.190499 -0.05292,0 -0.05292,-0.201082 v -0.105833 -0.127 q 0,-0.179916 -0.116417,-0.296332 -0.105833,-0.116416 -0.105833,-0.211666 0,-0.0635 0.01058,-0.105833 0.02117,-0.15875 0.126999,-0.328082 0.116417,-0.169333 0.243416,-0.243416 0.0635,-0.04233 0.338666,-0.08467 z m 0.645581,-0.275166 q -0.190499,-0.08467 -0.317499,-0.08467 -0.116416,0 -0.486832,0.116416 -0.687914,0.232833 -0.814914,0.952497 -0.05292,0.22225 -0.126999,0.391582 -0.201083,0.455082 -0.201083,1.534579 0,0.169333 0.02117,0.507998 0.07408,0.910164 0.370416,1.661578 0.243416,0.645582 0.550332,0.698498 0.137582,0.02117 0.179916,0.04233 0.01058,0.01058 0.05292,0.01058 0.264583,0 0.582082,-0.148167 0.08467,-0.04233 0.158749,-0.126999 0.07408,-0.08467 0.148166,-0.211666 0.07408,-0.127 0.105833,-0.169333 0.0635,-0.08467 0.148167,-0.285749 l 0.0635,-0.201083 h -0.264582 q -0.518582,0 -0.719665,-0.179916 -0.264582,-0.243416 -0.264582,-0.783164 0,-0.190499 0.05292,-0.476249 0.08467,-0.380998 0.338666,-0.613831 0.222249,-0.211666 0.455082,-0.211666 0.07408,0 0.105833,0.01058 0.190499,0.04233 0.306916,0.232833 0.116416,0.190499 0.116416,0.423332 0,0.211666 -0.105833,0.380999 -0.0635,0.105833 -0.243416,0.09525 -0.137583,0 -0.179916,-0.03175 -0.03175,-0.04233 -0.03175,-0.179917 v -0.116416 -0.0635 q 0,-0.148166 -0.05292,-0.148166 -0.07408,0 -0.1905,0.232833 -0.105833,0.222249 -0.105833,0.349249 0,0.148166 0.09525,0.264582 0.105833,0.116416 0.243416,0.116416 0.338665,0 0.613831,-0.497415 0.169333,-0.317499 0.232833,-0.793747 0.0635,-0.476249 0.0635,-0.846664 0,-0.370416 -0.0635,-0.687915 -0.08467,-0.391582 -0.317499,-0.709081 -0.22225,-0.317499 -0.518582,-0.455082 z m -0.582081,-1.090079 q 0.232832,-0.04233 0.306915,-0.04233 h 0.04233 q 0.455082,0.07408 0.634998,0.15875 0.179917,0.07408 0.349249,0.296332 0.328083,0.423332 0.539749,1.037164 0.07408,0.232832 0.137582,0.402165 0.07408,0.15875 0.105833,0.285749 0.04233,0.116416 0.09525,0.412749 0.07408,0.433915 0.07408,1.079496 0,1.471079 -0.306915,2.30716 -0.380999,0.984247 -0.931331,1.629828 -0.0635,0.116416 -0.433915,0.296332 -0.243416,0.116417 -0.370416,0.137583 -0.116416,0.02117 -0.444498,0.02117 -0.328082,0 -0.433915,-0.02117 -0.105833,-0.02117 -0.254,-0.105833 -0.190499,-0.116416 -0.423332,-0.349249 -0.222249,-0.232832 -0.306915,-0.412748 -0.560915,-1.111247 -0.560915,-2.963324 0,-0.793748 0.137583,-1.587495 0.04233,-0.232833 0.0635,-0.317499 0.02117,-0.09525 0.08467,-0.232833 0.07408,-0.137583 0.127,-0.285749 0.07408,-0.169333 0.190499,-0.338666 0.116416,-0.179916 0.201083,-0.275165 0.09525,-0.105833 0.264582,-0.285749 0.179916,-0.1905 0.253999,-0.275166 0.243416,-0.275166 0.423332,-0.391582 0.179916,-0.127 0.433916,-0.179916 z" />
      <path
         id="path852"
         style="font-style:normal;font-variant:normal;font-weight:normal;font-stretch:normal;font-family:'Espen Halloween';-inkscape-font-specification:'Espen Halloween';fill:#ff0000;fill-opacity:1;stroke:#ffffff;stroke-width:0.15;stroke-miterlimit:4;stroke-dasharray:none;stroke-opacity:1"
         d="m 65.417512,54.275123 q 0.497415,-0.09525 0.719664,-0.09525 0.1905,0 0.296333,0.07408 0.105833,0.0635 0.105833,0.148166 0,0.105833 -0.232833,0.296332 -0.09525,0.07408 -0.09525,0.179916 0,0.07408 -0.338665,0.793748 l -0.338666,0.730247 q -0.05292,0.148167 -0.105833,0.232833 -0.09525,0.148166 -0.201082,0.518582 -0.09525,0.370415 -0.211666,0.910163 -0.105833,0.539749 -0.148167,0.698498 -0.137582,0.518582 -0.190499,0.888997 -0.0635,0.433916 -0.09525,0.497416 -0.04233,0.126999 -0.04233,0.253999 0,0.08467 -0.148166,0.656164 -0.127,0.507999 -0.190499,0.941914 -0.0635,0.571498 -0.243416,0.571498 -0.03175,0 -0.05292,-0.01058 -0.211666,-0.0635 -0.296332,-0.772581 -0.02117,-0.201083 -0.08467,-0.465665 -0.05292,-0.275166 -0.05292,-0.507999 0,-0.190499 -0.04233,-0.412748 -0.03175,-0.232833 -0.116417,-0.550332 -0.08467,-0.328082 -0.09525,-0.402165 -0.09525,-0.412749 -0.116417,-0.412749 -0.04233,0 -0.412748,1.111247 -0.359832,1.111246 -0.412749,1.418162 -0.04233,0.201082 -0.158749,0.243416 -0.08467,0.03175 -0.127,0.03175 -0.116416,0 -0.169333,-0.179916 -0.05292,-0.179916 -0.105833,-0.687914 -0.04233,-0.455082 -0.137583,-0.814914 -0.296332,-1.079497 -0.476248,-2.635242 -0.05292,-0.539748 -0.211666,-1.291162 -0.148166,-0.751415 -0.211666,-0.836081 -0.0635,-0.0635 -0.169333,-0.0635 -0.370416,0 -0.370416,-0.190499 0,-0.0635 0.0635,-0.127 0.07408,-0.08467 0.433916,-0.116416 0.359832,-0.02117 0.857247,-0.09525 0.423332,-0.04233 0.433915,-0.04233 0.137583,0 0.328082,0.08467 0.09525,0.04233 0.09525,0.105833 0,0.09525 -0.158749,0.169333 -0.15875,0.07408 -0.370416,0.07408 -0.317499,0 -0.317499,0.105833 0,0.01058 0.02117,0.09525 0.01058,0.03175 0.05292,0.201083 0.04233,0.158749 0.0635,0.253999 0.04233,0.201083 0.190499,0.825497 0.15875,0.624415 0.201083,0.910164 0.317499,1.746244 0.349249,1.777994 0.02117,0.02117 0.137583,-0.423332 0.126999,-0.455082 0.211666,-0.825497 0.0635,-0.338666 0.0635,-0.624415 0,-0.423332 -0.127,-0.571498 -0.0635,-0.0635 -0.0635,-0.116416 0,-0.09525 0.211666,-0.09525 0.01058,0 0.04233,0.01058 0.04233,0 0.0635,0 0.0635,0.01058 0.148166,0.01058 0.105833,0 0.211666,-0.105833 0.137583,-0.137583 0.232833,-0.08467 0.105833,0.0635 0.07408,0.15875 -0.02117,0.08467 -0.02117,0.169333 0,0.433915 0.317499,1.746244 0.05292,0.179916 0.05292,0.338666 0,0.148166 0.03175,0.148166 0.08467,0 0.137583,-0.380999 0.116416,-0.761998 0.243416,-1.15358 0.158749,-0.486831 0.158749,-1.333495 0,-0.634998 -0.105833,-0.804331 -0.04233,-0.07408 -0.285749,-0.211666 -0.243416,-0.127 -0.338665,-0.264583 -0.0635,-0.105833 -0.0635,-0.126999 0,-0.03175 0.0635,-0.15875 0.105833,-0.211666 0.190499,-0.264582 0.09525,-0.05292 0.359832,-0.05292 h 0.15875 q 0.518581,0 0.93133,-0.07408 z" />
      <path
         id="path854"
         style="font-style:normal;font-variant:normal;font-weight:normal;font-stretch:normal;font-family:'Espen Halloween';-inkscape-font-specification:'Espen Halloween';fill:#ff0000;fill-opacity:1;stroke:#ffffff;stroke-width:0.15;stroke-miterlimit:4;stroke-dasharray:none;stroke-opacity:1"
         d="m 73.108427,54.370373 q 0.03175,-0.05292 0.211666,-0.05292 0.179916,0 0.222249,0.05292 0.08467,0.116416 0.08467,0.222249 0,0.08467 -0.0635,0.15875 -0.105833,0.105833 -0.105833,0.285749 0,0.137583 -0.04233,0.603248 -0.02117,0.253999 -0.02117,0.539748 0,0.07408 0,0.211666 0.01058,0.137583 0.01058,0.201083 0.01058,0.137583 0.01058,0.317499 0,0.232832 -0.09525,0.338665 -0.09525,0.127 -0.169333,0.127 -0.105833,0 -0.232832,-0.08467 -0.116416,-0.08467 -0.148166,-0.1905 -0.0635,-0.137583 -0.09525,-0.137583 -0.04233,0 -0.285749,-0.497415 -0.211666,-0.444498 -0.391582,-0.624414 -0.169333,-0.1905 -0.507999,-0.328083 -0.338665,-0.148166 -1.079496,-0.190499 -0.613832,-0.02117 -0.719665,-0.02117 h -0.09525 q -0.07408,0.03175 -0.07408,0.306916 0,0.232833 0.0635,0.486832 0.07408,0.296332 0.07408,0.391582 0,0.158749 -0.09525,0.444498 l -0.09525,0.296333 0.127,0.338665 q 0.137583,0.328083 0.158749,0.349249 h 0.01058 q 0.07408,0 0.338665,-0.126999 0.275166,-0.137583 0.444499,-0.264583 0.201082,-0.137583 0.328082,-0.137583 0.127,0 0.243416,0.105833 l 0.137583,0.105833 -0.105833,0.317499 q -0.116417,0.359832 -0.127,1.047747 l -0.02117,0.709081 -0.148167,0.15875 q -0.148166,0.148166 -0.232832,0.148166 -0.137583,0 -0.338666,-0.391582 -0.04233,-0.07408 -0.243416,-0.1905 -0.201082,-0.116416 -0.296332,-0.116416 -0.15875,0 -0.15875,0.698498 0,0.05292 0,0.201082 0.01058,0.137583 0.01058,0.22225 0.02117,0.656164 0.05292,0.888997 0.03175,0.222249 0.137583,0.444498 l 0.07408,0.15875 0.328082,-0.03175 q 0.338666,-0.02117 0.497416,-0.07408 0.211666,-0.05292 0.603248,-0.444499 0.391582,-0.402165 0.719664,-0.888997 0.380999,-0.582081 0.391582,-0.613831 0.02117,-0.0635 0.211666,-0.08467 0.02117,0 0.05292,0 0.04233,-0.01058 0.05292,-0.01058 0.105833,0 0.169333,0.148166 0.07408,0.127 0.07408,0.518582 v 0.296332 0.296333 q 0,0.507998 0.0635,0.783164 l 0.08467,0.402165 -0.105833,0.148167 q -0.126999,0.158749 -0.317499,0.158749 -0.04233,0 -0.317499,-0.04233 -0.158749,-0.03175 -0.391582,-0.03175 h -0.116416 q -0.0635,0.01058 -1.079497,0.08467 -1.005413,0.08467 -1.333495,0.137583 -0.296333,0.05292 -0.941914,0.127 -0.518582,0.0635 -0.613832,0.116416 -0.126999,0.0635 -0.232832,0.0635 -0.296333,0 -0.349249,-0.285749 -0.01058,-0.04233 -0.01058,-0.105833 0,-0.306916 0.613831,-0.370416 0.380999,-0.04233 0.476249,-0.211666 0.09525,-0.158749 0.105833,-0.814914 0,-0.328082 0.01058,-0.560915 0.02117,-0.232832 0.02117,-0.349248 0,-0.02117 -0.02117,-0.550332 l -0.03175,-0.719664 h -0.190499 q -0.349249,0 -0.349249,-0.264583 0,-0.08467 0.03175,-0.158749 0.03175,-0.07408 0.158749,-0.137583 0.127,-0.0635 0.243416,-0.0635 0.127,0 0.148166,-0.07408 0.02117,-0.04233 0.02117,-0.412749 0,-1.523995 -0.148166,-2.317743 -0.03175,-0.201082 -0.0635,-0.253999 -0.02117,-0.05292 -0.07408,-0.05292 -0.116417,0 -0.201083,-0.105833 -0.07408,-0.116417 -0.07408,-0.243416 0,-0.15875 0.116416,-0.211666 0.105833,-0.0635 1.767411,-0.07408 1.545162,0 1.862661,-0.03175 0.804331,-0.07408 0.96308,-0.148166 0.15875,-0.0635 0.275166,-0.04233 0.137583,0.02117 0.148166,-0.02117 z" />
      <path
         id="path856"
         style="font-style:normal;font-variant:normal;font-weight:normal;font-stretch:normal;font-family:'Espen Halloween';-inkscape-font-specification:'Espen Halloween';fill:#ff0000;fill-opacity:1;stroke:#ffffff;stroke-width:0.15;stroke-miterlimit:4;stroke-dasharray:none;stroke-opacity:1"
         d="m 80.176912,54.370373 q 0.03175,-0.05292 0.211666,-0.05292 0.179917,0 0.22225,0.05292 0.08467,0.116416 0.08467,0.222249 0,0.08467 -0.0635,0.15875 -0.105833,0.105833 -0.105833,0.285749 0,0.137583 -0.04233,0.603248 -0.02117,0.253999 -0.02117,0.539748 0,0.07408 0,0.211666 0.01058,0.137583 0.01058,0.201083 0.01058,0.137583 0.01058,0.317499 0,0.232832 -0.09525,0.338665 -0.09525,0.127 -0.169332,0.127 -0.105833,0 -0.232833,-0.08467 -0.116416,-0.08467 -0.148166,-0.1905 -0.0635,-0.137583 -0.09525,-0.137583 -0.04233,0 -0.285749,-0.497415 -0.211666,-0.444498 -0.391582,-0.624414 -0.169333,-0.1905 -0.507998,-0.328083 -0.338666,-0.148166 -1.079497,-0.190499 -0.613831,-0.02117 -0.719664,-0.02117 h -0.09525 q -0.07408,0.03175 -0.07408,0.306916 0,0.232833 0.0635,0.486832 0.07408,0.296332 0.07408,0.391582 0,0.158749 -0.09525,0.444498 l -0.09525,0.296333 0.127,0.338665 q 0.137583,0.328083 0.158749,0.349249 h 0.01058 q 0.07408,0 0.338665,-0.126999 0.275166,-0.137583 0.444499,-0.264583 0.201083,-0.137583 0.328082,-0.137583 0.127,0 0.243416,0.105833 l 0.137583,0.105833 -0.105833,0.317499 q -0.116416,0.359832 -0.127,1.047747 l -0.02117,0.709081 -0.148166,0.15875 q -0.148167,0.148166 -0.232833,0.148166 -0.137583,0 -0.338666,-0.391582 -0.04233,-0.07408 -0.243415,-0.1905 -0.201083,-0.116416 -0.296333,-0.116416 -0.158749,0 -0.158749,0.698498 0,0.05292 0,0.201082 0.01058,0.137583 0.01058,0.22225 0.02117,0.656164 0.05292,0.888997 0.03175,0.222249 0.137583,0.444498 l 0.07408,0.15875 0.328083,-0.03175 q 0.338665,-0.02117 0.497415,-0.07408 0.211666,-0.05292 0.603248,-0.444499 0.391582,-0.402165 0.719664,-0.888997 0.380999,-0.582081 0.391582,-0.613831 0.02117,-0.0635 0.211666,-0.08467 0.02117,0 0.05292,0 0.04233,-0.01058 0.05292,-0.01058 0.105833,0 0.169333,0.148166 0.07408,0.127 0.07408,0.518582 v 0.296332 0.296333 q 0,0.507998 0.0635,0.783164 l 0.08467,0.402165 -0.105833,0.148167 q -0.126999,0.158749 -0.317499,0.158749 -0.04233,0 -0.317499,-0.04233 -0.158749,-0.03175 -0.391582,-0.03175 h -0.116416 q -0.0635,0.01058 -1.079496,0.08467 -1.005414,0.08467 -1.333496,0.137583 -0.296333,0.05292 -0.941914,0.127 -0.518582,0.0635 -0.613831,0.116416 -0.127,0.0635 -0.232833,0.0635 -0.296332,0 -0.349249,-0.285749 -0.01058,-0.04233 -0.01058,-0.105833 0,-0.306916 0.613831,-0.370416 0.380999,-0.04233 0.476249,-0.211666 0.09525,-0.158749 0.105833,-0.814914 0,-0.328082 0.01058,-0.560915 0.02117,-0.232832 0.02117,-0.349248 0,-0.02117 -0.02117,-0.550332 l -0.03175,-0.719664 h -0.190499 q -0.349249,0 -0.349249,-0.264583 0,-0.08467 0.03175,-0.158749 0.03175,-0.07408 0.158749,-0.137583 0.127,-0.0635 0.243416,-0.0635 0.127,0 0.148166,-0.07408 0.02117,-0.04233 0.02117,-0.412749 0,-1.523995 -0.148166,-2.317743 -0.03175,-0.201082 -0.0635,-0.253999 -0.02117,-0.05292 -0.07408,-0.05292 -0.116416,0 -0.201083,-0.105833 -0.07408,-0.116417 -0.07408,-0.243416 0,-0.15875 0.116416,-0.211666 0.105833,-0.0635 1.767411,-0.07408 1.545162,0 1.862661,-0.03175 0.804331,-0.07408 0.96308,-0.148166 0.15875,-0.0635 0.275166,-0.04233 0.137583,0.02117 0.148166,-0.02117 z" />
      <path
         id="path858"
         style="font-style:normal;font-variant:normal;font-weight:normal;font-stretch:normal;font-family:'Espen Halloween';-inkscape-font-specification:'Espen Halloween';fill:#ff0000;fill-opacity:1;stroke:#ffffff;stroke-width:0.15;stroke-miterlimit:4;stroke-dasharray:none;stroke-opacity:1"
         d="m 85.604986,53.798875 q 0.169333,-0.02117 0.232833,-0.02117 0.560915,0 0.941914,0.402166 0.391582,0.402165 0.391582,0.99483 v 0.07408 q -0.03175,0.507998 -0.349249,0.846664 -0.232833,0.253999 -0.402166,0.328082 -0.169332,0.07408 -0.486831,0.07408 h -0.338666 l -0.190499,-0.222249 q -0.264583,-0.328082 -0.264583,-0.455082 0,-0.03175 0.04233,-0.222249 0.0635,-0.232833 0.116417,-0.328083 0.05292,-0.09525 0.201082,-0.243416 0.169333,-0.158749 0.391582,-0.158749 0.15875,0 0.264583,0.07408 0.08467,0.05292 0.158749,0.190499 0.07408,0.127 0.07408,0.211666 0,0.02117 -0.02117,0.0635 -0.08467,0.09525 -0.179916,0.09525 -0.07408,0 -0.15875,-0.05292 -0.08467,-0.05292 -0.148166,-0.05292 -0.105833,0 -0.169333,0.08467 -0.0635,0.08467 -0.0635,0.211666 0,0.0635 0.01058,0.105833 0.04233,0.179916 0.190499,0.179916 0.137583,0 0.349249,-0.179916 0.148166,-0.126999 0.190499,-0.201082 0.04233,-0.07408 0.0635,-0.243416 0.01058,-0.0635 0.01058,-0.169333 0,-0.338666 -0.254,-0.603248 -0.158749,-0.169333 -0.253999,-0.169333 -0.07408,0 -0.126999,0.01058 -0.412749,0.0635 -0.634998,0.634998 -0.264583,0.698498 -0.264583,1.809745 v 0.211666 q 0,0.391582 -0.04233,0.592664 -0.05292,0.338666 -0.05292,0.910164 0,0.973664 0.105833,1.746245 0.09525,0.825497 0.15875,0.973663 0.211666,0.444499 0.211666,0.751414 0,0.338666 -0.444499,0.338666 -0.211666,0 -0.285749,-0.0635 -0.0635,-0.0635 -0.126999,-0.296332 -0.0635,-0.169333 -0.761998,-2.349493 -0.222249,-0.719664 -0.507998,-1.439328 -0.285749,-0.719665 -0.349249,-0.719665 h -0.01058 q -0.02117,0.02117 -0.04233,0.793748 -0.105833,2.963324 -0.137583,3.07974 -0.02117,0.126999 -0.09525,0.370415 -0.05292,0.232833 -0.05292,0.867831 v 0.179916 q 0,0.328082 -0.04233,0.423332 -0.04233,0.105833 -0.190499,0.148166 -0.03175,0.01058 -0.07408,0.01058 -0.08467,0 -0.126999,-0.169332 -0.03175,-0.15875 -0.05292,-0.677331 -0.04233,-0.772581 -0.04233,-3.661822 0,-2.08491 0.02117,-2.645825 l 0.03175,-1.005414 -0.137583,0.03175 q -0.03175,0.01058 -0.08467,0.01058 -0.148166,0 -0.264582,-0.08467 -0.105833,-0.09525 -0.105833,-0.201082 0,-0.07408 0.04233,-0.116417 0.08467,-0.09525 0.613831,-0.201082 0.539749,-0.116417 0.941914,-0.15875 0.04233,-0.01058 0.116416,-0.01058 0.105833,0 0.1905,0.08467 0.116416,0.09525 0.116416,0.169333 0,0.0635 -0.116416,0.148166 l -0.116416,0.07408 0.01058,0.560915 q 0.01058,0.380999 0.04233,0.529165 0.04233,0.148166 0.15875,0.433915 0.158749,0.370416 0.158749,0.465666 0,0.0635 0.07408,0.190499 0.0635,0.127 0.201083,0.560915 0.09525,0.285749 0.222249,0.603248 l 0.08467,0.190499 0.03175,-0.952497 q 0.0635,-1.756827 0.232833,-2.296576 0.232833,-0.761997 0.518582,-1.079496 0.275165,-0.306916 0.656164,-0.391582 z" />
    </g>
    <text
       xml:space="preserve"
       style="font-style:normal;font-variant:normal;font-weight:normal;font-stretch:normal;font-size:30.5329px;line-height:1.25;font-family:Impact;-inkscape-font-specification:Impact;letter-spacing:1.4938px;fill:#000000;fill-opacity:1;stroke:#ffffff;stroke-width:0.88216;stroke-miterlimit:4;stroke-dasharray:none;stroke-opacity:1"
       x="84.565552"
       y="30.004507"
       id="text849"><tspan
         sodipodi:role="line"
         id="tspan847"
         x="84.565552"
         y="30.004507"
         style="font-style:normal;font-variant:normal;font-weight:normal;font-stretch:normal;font-family:Impact;-inkscape-font-specification:Impact;word-spacing:12.6195px;fill:#000000;fill-opacity:1;stroke:#ffffff;stroke-width:0.88216;stroke-miterlimit:4;stroke-dasharray:none;stroke-opacity:1"
         rotate="0 0 0 0 0 0 0 0"
         dy="7.7042017"
         dx="9.6449547">SURVIVE</tspan></text>
  </g>
</svg>
